<svg width="40" height="40" viewBox="0 0 40 40" fill="none" xmlns="http://www.w3.org/2000/svg">
<circle cx="20" cy="20" r="20" fill="#90B0D7" fill-opacity="0.5"/>
<path d="M20.0001 14.865C18.9845 14.865 17.9918 15.1661 17.1473 15.7304C16.3029 16.2946 15.6448 17.0966 15.2561 18.0348C14.8675 18.9731 14.7658 20.0056 14.9639 21.0016C15.162 21.9977 15.6511 22.9127 16.3692 23.6308C17.0873 24.3489 18.0023 24.838 18.9984 25.0361C19.9944 25.2342 21.0269 25.1325 21.9652 24.7439C22.9034 24.3553 23.7054 23.6971 24.2696 22.8527C24.8339 22.0082 25.135 21.0155 25.135 19.9999C25.135 19.3256 25.0022 18.6578 24.7442 18.0348C24.4861 17.4118 24.1079 16.8458 23.6311 16.3689C23.1543 15.8921 22.5882 15.5139 21.9652 15.2558C21.3422 14.9978 20.6745 14.865 20.0001 14.865ZM20.0001 23.3334C19.3408 23.3334 18.6963 23.1379 18.1481 22.7716C17.5999 22.4053 17.1726 21.8847 16.9203 21.2755C16.668 20.6664 16.602 19.9961 16.7306 19.3495C16.8592 18.7028 17.1767 18.1088 17.6429 17.6426C18.1092 17.1764 18.7031 16.8589 19.3498 16.7303C19.9965 16.6017 20.6667 16.6677 21.2759 16.92C21.885 17.1723 22.4056 17.5996 22.7719 18.1478C23.1382 18.696 23.3337 19.3406 23.3337 19.9999C23.3338 20.4377 23.2476 20.8712 23.0801 21.2757C22.9126 21.6801 22.667 22.0476 22.3575 22.3572C22.0479 22.6668 21.6804 22.9123 21.2759 23.0798C20.8714 23.2473 20.4379 23.3335 20.0001 23.3334Z" fill="#314459"/>
<path d="M29.9395 15.8772C29.9231 15.0477 29.766 14.2269 29.475 13.4499C29.2235 12.7828 28.8299 12.1784 28.3215 11.6785C27.8224 11.1696 27.2181 10.7759 26.5509 10.525C25.774 10.2338 24.9532 10.0767 24.1236 10.0605C23.0574 10.012 22.7165 10 20.0008 10C17.2851 10 16.944 10.0113 15.8772 10.0605C15.0476 10.0769 14.2269 10.234 13.4499 10.525C12.7826 10.7762 12.1781 11.1698 11.6785 11.6785C11.1693 12.1777 10.7757 12.7823 10.5251 13.4499C10.2341 14.2269 10.077 15.0477 10.0606 15.8772C10.0113 16.9434 10 17.2843 10 20C10 22.7157 10.0113 23.0565 10.0606 24.1228C10.077 24.9523 10.234 25.7731 10.5251 26.5501C10.7757 27.2176 11.1694 27.8222 11.6785 28.3215C12.1784 28.8299 12.7828 29.2234 13.4499 29.4749C14.2269 29.7659 15.0477 29.9229 15.8772 29.9394C16.944 29.9879 17.2843 30 20 30C22.7157 30 23.0566 29.9887 24.1228 29.9394C24.9523 29.923 25.7731 29.7659 26.5501 29.4749C27.2145 29.2181 27.8178 28.8252 28.3215 28.3215C28.8252 27.8178 29.2181 27.2145 29.475 26.5501C29.7663 25.7732 29.9234 24.9523 29.9395 24.1228C29.988 23.0558 29.9992 22.7157 29.9992 20C29.9992 17.2843 29.988 16.9434 29.9395 15.8772ZM28.1405 24.0412C28.1328 24.6754 28.0164 25.3035 27.7965 25.8983C27.63 26.3296 27.3751 26.7212 27.0482 27.048C26.7213 27.3748 26.3295 27.6295 25.8982 27.7957C25.3035 28.0162 24.6753 28.1326 24.0411 28.1397C22.987 28.1882 22.6704 28.1979 19.9999 28.1979C17.3294 28.1979 17.0137 28.1882 15.9599 28.1397C15.3258 28.1325 14.6976 28.0161 14.1029 27.7957C13.6685 27.6352 13.2755 27.3797 12.9526 27.0477C12.6202 26.7256 12.3646 26.3327 12.2046 25.8983C11.9841 25.3037 11.8678 24.6754 11.8606 24.0413C11.8121 22.9872 11.8025 22.6706 11.8025 20.0001C11.8025 17.3296 11.813 17.0138 11.8606 15.9589C11.8686 15.3248 11.985 14.6967 12.2046 14.1019C12.3651 13.6675 12.6207 13.2745 12.9526 12.9516C13.275 12.619 13.6681 12.3634 14.1029 12.2036C14.6975 11.9832 15.3258 11.8668 15.9599 11.8596C17.014 11.8111 17.3306 11.8015 19.9999 11.8015C22.6693 11.8015 22.9862 11.812 24.0411 11.8596C24.6752 11.8676 25.3033 11.984 25.8982 12.2036C26.3297 12.3699 26.7215 12.6247 27.0484 12.9516C27.3754 13.2786 27.6302 13.6704 27.7965 14.1019C28.0169 14.6965 28.1333 15.3247 28.1405 15.9589C28.1889 17.0139 28.1986 17.3296 28.1986 20.0001C28.1986 22.6705 28.1889 22.9863 28.1405 24.0412Z" fill="#314459"/>
<path d="M25.3387 13.4619C25.0205 13.462 24.7149 13.5884 24.49 13.8134C24.265 14.0385 24.1386 14.3436 24.1387 14.6618C24.1387 14.98 24.2651 15.2851 24.4901 15.5101C24.7151 15.7351 25.0203 15.8615 25.3385 15.8615C25.6566 15.8615 25.9618 15.7351 26.1868 15.5101C26.4118 15.2851 26.5382 14.98 26.5383 14.6618C26.5383 14.3436 26.4119 14.0385 26.187 13.8134C25.962 13.5884 25.6569 13.462 25.3387 13.4619Z" fill="#314459"/>
</svg>
