<svg width="40" height="40" viewBox="0 0 40 40" fill="none" xmlns="http://www.w3.org/2000/svg">
<path d="M20 -0.00634766C8.95375 -0.00634766 0 8.9474 0 19.9937C0 31.0387 8.95375 39.9937 20 39.9937C31.0463 39.9937 40 31.0387 40 19.9937C40 8.9474 31.0463 -0.00634766 20 -0.00634766Z" fill="#90B0D7" fill-opacity="0.5"/>
<path d="M22.4963 24.46C22.4122 24.4598 22.3293 24.479 22.2538 24.5162C22.1654 24.5613 22.0855 24.6214 22.0176 24.6937V28.3175C22.0955 28.4009 22.1873 28.4702 22.2888 28.5225C22.3751 28.5637 22.4695 28.5851 22.5651 28.585C22.7051 28.585 22.8076 28.545 22.8726 28.4612C22.9376 28.38 22.9726 28.2487 22.9726 28.0612V25.0587C22.9726 24.8625 22.9313 24.7125 22.8513 24.6125C22.7701 24.51 22.6501 24.46 22.4963 24.46Z" fill="#314459"/>
<path d="M26.4377 24.4812C26.2552 24.4812 26.1252 24.5325 26.0452 24.6412C25.9665 24.7437 25.9277 24.9187 25.9277 25.1625V25.75H26.939V25.1625C26.939 24.9187 26.8977 24.7437 26.8177 24.6412C26.7402 24.5325 26.6115 24.4812 26.4377 24.4812Z" fill="#314459"/>
<path d="M28.8492 19.9525C27.9092 19.015 19.9967 19.0025 19.9967 19.0025C19.9967 19.0025 12.0842 19.0137 11.143 19.9512C10.2017 20.8912 10.1992 25.5287 10.1992 25.555C10.1992 25.59 10.2017 30.22 11.143 31.16C12.0842 32.0975 19.9967 32.1175 19.9967 32.1175C19.9967 32.1175 27.9105 32.0975 28.8492 31.16C29.7942 30.2175 29.803 25.555 29.803 25.555C29.803 25.53 29.7917 20.8925 28.8492 19.9525ZM16.2342 22.6862H14.9017V29.4237H13.613V22.6862H12.2792V21.5412H16.233V22.6862H16.2342ZM20.0005 29.4225H18.8592V28.7837C18.6467 29.02 18.428 29.2 18.198 29.3225C17.9692 29.4475 17.748 29.5075 17.5342 29.5075C17.2692 29.5075 17.073 29.4225 16.9367 29.2475C16.8055 29.0737 16.7367 28.8162 16.7367 28.4687V23.6062H17.8792V28.0662C17.8792 28.205 17.903 28.3037 17.9492 28.3662C17.9992 28.4287 18.078 28.4587 18.1842 28.4587C18.3003 28.4479 18.4111 28.4051 18.5042 28.335C18.6374 28.2495 18.7571 28.1446 18.8592 28.0237V23.6062H20.0005V29.4225ZM24.1492 28.2212C24.1492 28.6325 24.0592 28.9475 23.8805 29.1675C23.703 29.3875 23.4417 29.4962 23.103 29.4962C22.8967 29.5013 22.6921 29.458 22.5055 29.37C22.316 29.2756 22.1493 29.1413 22.0167 28.9762V29.4225H20.8617V21.54H22.0167V24.0787C22.1717 23.9012 22.3342 23.765 22.5067 23.675C22.6684 23.5858 22.8496 23.5382 23.0342 23.5362C23.3967 23.5362 23.673 23.66 23.863 23.9062C24.0555 24.155 24.1492 24.5175 24.1492 24.9937V28.2212ZM28.1142 26.6562H25.928V27.75C25.928 28.0562 25.9655 28.2687 26.0392 28.3875C26.1167 28.5062 26.2442 28.5637 26.4267 28.5637C26.6155 28.5637 26.748 28.5137 26.8242 28.4137C26.8992 28.3137 26.9392 28.0937 26.9392 27.75V27.485H28.1155V27.7837C28.1155 28.38 27.973 28.8287 27.6855 29.1325C27.4005 29.4337 26.9717 29.5825 26.403 29.5825C25.8917 29.5825 25.4867 29.4237 25.193 29.1037C24.8992 28.785 24.7505 28.3462 24.7505 27.785V25.1737C24.7505 24.6712 24.9142 24.2575 25.2367 23.9412C25.5592 23.6237 25.9755 23.465 26.488 23.465C27.0117 23.465 27.4142 23.6125 27.6955 23.9062C27.9767 24.2 28.1155 24.6225 28.1155 25.1737V26.6562H28.1142Z" fill="#314459"/>
<path d="M26.4323 16.5637H25.1448V15.8562C24.935 16.0966 24.6845 16.298 24.4048 16.4512C24.1767 16.5801 23.9204 16.6505 23.6585 16.6562C23.3585 16.6562 23.136 16.56 22.986 16.37C22.836 16.1787 22.7598 15.8937 22.7598 15.5112V10.1575H24.0448V15.0687C24.0448 15.22 24.0748 15.33 24.1285 15.3975C24.181 15.4662 24.2698 15.5 24.3898 15.5C24.5192 15.4875 24.643 15.4409 24.7485 15.365C24.8923 15.275 25.026 15.16 25.1448 15.02V10.1575H26.4323V16.5637Z" fill="#314459"/>
<path d="M21.206 10.4614C20.8648 10.1514 20.4273 9.99512 19.8948 9.99512C19.311 9.99512 18.8435 10.1426 18.4985 10.4364C18.151 10.7301 17.9773 11.1251 17.9785 11.6226V14.9426C17.9785 15.4876 18.1485 15.9201 18.4848 16.2426C18.8235 16.5639 19.2748 16.7251 19.8373 16.7251C20.4235 16.7251 20.881 16.5689 21.2173 16.2576C21.5498 15.9451 21.716 15.5164 21.716 14.9689V11.6589C21.7225 11.4343 21.6803 11.211 21.5922 11.0042C21.5042 10.7975 21.3724 10.6123 21.206 10.4614ZM20.4035 15.0651C20.4072 15.1396 20.3955 15.214 20.369 15.2837C20.3426 15.3534 20.302 15.4169 20.2498 15.4701C20.136 15.5715 19.9869 15.624 19.8348 15.6164C19.6635 15.6164 19.5323 15.5689 19.4423 15.4726C19.3448 15.36 19.295 15.2138 19.3035 15.0651V11.5751C19.3035 11.4351 19.3535 11.3214 19.451 11.2351C19.5585 11.146 19.6953 11.1001 19.8348 11.1064C20.0035 11.1064 20.141 11.1489 20.246 11.2351C20.351 11.3214 20.4035 11.4351 20.4035 11.5751V15.0651Z" fill="#314459"/>
<path d="M14.4717 7.88135H13.0117L14.7367 13.1238V16.5638H16.1867V12.9613L17.873 7.88135H16.3992L15.5042 11.3513H15.413L14.4717 7.88135Z" fill="#314459"/>
</svg>
